<?xml version="1.0" standalone="no"?>
<!DOCTYPE svg PUBLIC "-//W3C//DTD SVG 20010904//EN"
 "http://www.w3.org/TR/2001/REC-SVG-20010904/DTD/svg10.dtd">
<svg version="1.0" xmlns="http://www.w3.org/2000/svg"
 width="750.000000pt" height="1000.000000pt" viewBox="0 0 750.000000 1000.000000"
 preserveAspectRatio="xMidYMid meet">

<g transform="translate(0.000000,1000.000000) scale(0.100000,-0.100000)"
fill="#000000" stroke="none">
<path d="M3372 9599 c-18 -11 -37 -17 -42 -14 -23 14 -131 -46 -199 -112 -19
-19 -45 -33 -58 -33 -13 0 -35 -12 -49 -27 -16 -17 -28 -23 -32 -17 -11 18
-43 14 -117 -14 -82 -30 -101 -44 -108 -78 -4 -20 -1 -23 14 -19 15 5 19 1 19
-20 0 -18 -8 -29 -27 -38 -37 -16 -63 -39 -63 -54 0 -7 -8 -20 -19 -30 -10
-10 -24 -36 -31 -58 -7 -22 -19 -47 -26 -55 -8 -10 -12 -31 -9 -57 2 -23 1
-45 -4 -47 -5 -3 -4 -23 2 -44 9 -34 7 -42 -14 -71 -13 -18 -43 -45 -66 -60
-49 -32 -80 -68 -115 -131 -14 -25 -37 -62 -51 -83 -30 -44 -68 -138 -73 -181
-2 -17 -8 -32 -13 -35 -19 -13 -160 -406 -181 -506 -4 -22 -22 -107 -39 -190
-17 -82 -38 -175 -47 -205 -28 -101 -43 -165 -38 -170 3 -2 40 -4 82 -3 42 0
80 -1 85 -4 4 -2 -4 -18 -18 -35 -14 -16 -25 -36 -25 -44 0 -23 -33 -16 -57
14 l-24 27 3 -30 c3 -26 -1 -30 -23 -33 -19 -2 -28 3 -36 20 -24 54 -148 -433
-172 -679 -16 -155 -15 -387 3 -613 12 -149 30 -729 27 -830 -3 -73 1 -295 5
-301 6 -10 5 -339 -1 -394 -18 -172 -25 -251 -25 -319 0 -69 2 -77 15 -66 10
8 15 30 15 64 0 28 5 78 11 111 6 33 12 112 15 175 2 63 8 137 13 165 4 27 9
105 9 172 1 75 6 131 13 145 7 13 15 72 18 133 4 68 10 108 16 105 6 -3 9 -11
9 -17 -1 -7 2 -13 7 -13 5 0 9 23 9 50 0 28 -4 50 -10 50 -5 0 -10 -6 -11 -12
-1 -7 -4 -2 -8 12 -5 14 -6 75 -4 135 3 72 -1 145 -11 208 -18 111 -21 221 -6
197 14 -22 12 -4 -10 80 -25 96 -37 210 -22 210 12 0 17 -15 26 -85 3 -22 10
-62 15 -90 6 -27 10 -80 10 -116 1 -37 6 -91 12 -120 13 -62 16 -93 20 -206 1
-45 6 -80 10 -77 8 4 13 -33 27 -206 13 -166 9 -230 -18 -252 -21 -17 -22 -23
-15 -81 4 -34 9 -86 10 -115 2 -29 9 -60 16 -68 10 -13 10 -17 -1 -24 -7 -4
-10 -15 -7 -23 3 -8 -1 -45 -8 -83 -13 -68 -11 -124 5 -124 4 0 11 11 14 25 7
27 26 34 26 10 0 -8 -6 -15 -12 -15 -9 0 -9 -3 1 -9 23 -15 -8 -86 -37 -85
-21 1 -22 -3 -20 -80 1 -45 1 -99 0 -121 -1 -22 -1 -49 -1 -60 1 -22 -8 -124
-15 -170 -3 -16 -8 -64 -11 -105 -4 -41 -11 -81 -17 -88 -6 -7 -12 -22 -13
-35 -1 -12 -3 -25 -4 -28 0 -4 -19 -19 -42 -35 -34 -23 -42 -25 -50 -13 -5 9
-9 10 -9 2 0 -21 -49 -58 -93 -70 -23 -7 -68 -17 -99 -23 -50 -10 -109 -34
-183 -77 -23 -13 -233 -63 -267 -63 -24 0 -193 -34 -338 -68 -47 -11 -121 -28
-165 -37 -44 -9 -88 -20 -97 -26 -10 -5 -26 -13 -35 -18 -48 -25 -151 -71
-160 -71 -16 0 -73 -33 -73 -42 0 -5 -6 -8 -14 -8 -18 0 -77 -57 -104 -101
-12 -19 -53 -64 -92 -99 l-70 -63 0 -1343 0 -1344 3750 0 3750 0 0 1660 0
1660 -25 0 c-14 0 -45 9 -68 21 -59 29 -118 49 -144 49 -16 0 -28 11 -40 36
-22 45 -70 64 -164 64 -41 0 -114 12 -185 30 -66 16 -135 30 -154 30 -19 0
-57 7 -84 15 -28 9 -88 15 -140 15 -129 0 -244 16 -293 39 -39 19 -49 32 -85
101 -9 18 -13 82 -13 227 0 111 -3 205 -7 208 -4 4 -4 15 0 24 4 9 7 27 6 41
-4 61 -24 229 -32 271 -6 28 -5 53 0 64 11 18 4 53 -19 102 -11 24 -12 36 -3
52 8 16 8 42 0 97 -5 42 -12 79 -15 84 -9 15 -24 224 -17 234 15 20 -3 273
-22 311 -19 39 -47 235 -35 255 7 12 8 10 9 -7 0 -12 5 -25 10 -28 12 -8 13
29 1 53 -27 52 -33 72 -28 86 3 8 2 18 -3 21 -6 4 -10 23 -10 44 0 21 -6 44
-14 50 -16 13 -26 55 -30 126 -2 28 -9 63 -15 78 -6 16 -11 43 -11 61 0 19 -7
49 -15 69 -8 19 -12 37 -9 40 4 3 -2 30 -12 59 -9 29 -19 62 -21 73 -13 77
-16 91 -23 100 -4 6 -11 36 -15 68 -3 31 -11 55 -16 52 -5 -4 -9 1 -9 11 0 9
-11 42 -25 73 -26 58 -67 268 -65 334 1 24 -3 36 -9 32 -12 -7 -14 5 -30 120
-20 142 -21 145 -56 217 -11 22 -11 26 0 22 14 -6 7 26 -29 121 -8 22 -15 52
-16 67 0 15 -4 29 -9 32 -5 3 -12 18 -15 33 -4 16 -34 105 -67 198 -33 94 -67
189 -76 213 -8 23 -21 49 -29 56 -8 8 -14 22 -14 31 0 27 -100 214 -113 211
-7 -1 -9 -1 -4 1 15 9 6 32 -22 52 -15 11 -31 18 -34 15 -3 -3 -3 3 0 14 2 11
0 23 -5 26 -6 3 -8 15 -5 26 6 22 -12 28 -20 8 -4 -10 -6 -10 -6 0 -1 6 -8 12
-16 12 -8 0 -15 7 -15 15 0 8 -4 15 -10 15 -5 0 -10 6 -10 14 0 8 -6 21 -12
28 -23 23 -48 87 -38 93 14 8 13 35 -1 35 -6 0 -9 -7 -5 -15 3 -8 2 -15 -3
-15 -5 0 -12 12 -16 28 -9 38 -36 67 -47 50 -6 -10 -8 -10 -8 0 0 6 -9 21 -20
32 -12 12 -18 25 -15 30 6 9 -289 305 -321 323 -9 5 -14 3 -14 -7 0 -8 -5 -18
-12 -22 -8 -5 -9 -2 -4 11 9 24 -32 65 -45 44 -7 -12 -12 -12 -26 -1 -10 7
-26 15 -35 18 -10 4 -18 10 -18 14 0 7 -65 41 -178 91 -37 17 -79 37 -94 45
-14 7 -35 14 -45 14 -20 0 -61 36 -52 45 7 6 118 -24 152 -42 16 -8 31 -12 34
-10 10 11 -113 59 -161 64 -31 3 -65 14 -87 29 -41 28 -181 84 -209 84 -10 0
-22 5 -25 10 -4 6 -12 10 -18 9 -7 -1 -19 1 -27 4 -47 19 -106 27 -195 26 -80
0 -107 -4 -133 -20z m525 -624 c12 -8 31 -15 43 -15 11 0 20 -4 20 -9 0 -9 32
-22 60 -25 8 0 14 -7 12 -14 -1 -7 9 -17 22 -23 14 -7 22 -18 20 -28 -3 -11 9
-22 38 -35 24 -11 49 -26 56 -33 7 -6 18 -10 26 -7 7 3 18 -2 25 -10 6 -7 21
-12 31 -9 11 3 35 -2 53 -10 18 -9 42 -14 53 -12 23 6 50 -14 55 -40 2 -11 15
-25 27 -31 13 -6 32 -21 43 -33 11 -11 25 -21 30 -21 13 0 48 -41 49 -55 0 -6
15 -26 34 -45 19 -19 32 -39 29 -44 -3 -5 3 -16 15 -25 19 -15 38 -44 84 -133
11 -21 25 -38 30 -38 7 0 6 -5 -1 -13 -6 -8 -9 -16 -6 -18 5 -6 17 -73 19
-110 1 -21 5 -24 24 -21 20 4 22 2 16 -22 -4 -17 -2 -26 6 -26 9 0 10 -15 5
-55 -5 -46 -4 -55 9 -55 11 0 16 -9 16 -29 0 -17 5 -33 10 -36 6 -3 10 -17 10
-31 0 -17 4 -23 12 -18 8 5 9 2 4 -11 -4 -10 0 -28 9 -42 9 -13 13 -28 10 -33
-3 -6 1 -7 9 -4 10 4 16 1 16 -9 0 -9 10 -23 21 -31 13 -9 22 -27 24 -48 2
-18 4 -35 5 -38 1 -3 2 -12 1 -21 -1 -9 7 -19 19 -22 12 -3 20 -13 20 -27 0
-12 5 -31 11 -42 8 -15 8 -22 0 -28 -7 -4 -9 -15 -5 -25 7 -18 8 -18 15 1 6
14 8 10 8 -17 1 -19 -6 -44 -14 -55 -17 -22 -20 -38 -5 -29 6 3 10 -4 10 -17
0 -13 3 -34 5 -48 3 -14 2 -19 -1 -12 -4 9 -9 10 -19 2 -10 -8 -23 -7 -52 6
-39 17 -52 20 -193 52 -47 11 -101 24 -121 30 -50 14 -278 0 -288 -17 -7 -10
-13 -10 -29 -2 -15 8 -24 8 -34 -2 -7 -6 -22 -13 -33 -15 -49 -7 -125 -132
-80 -132 8 0 12 -6 9 -15 -4 -9 3 -16 20 -21 25 -6 24 -7 -22 -41 -64 -49
-145 -123 -180 -167 -15 -19 -15 -293 -1 -302 12 -7 12 -44 0 -44 -19 0 -20
-60 -2 -107 11 -26 22 -57 26 -68 5 -15 8 -16 14 -6 11 17 31 6 31 -16 0 -13
40 -75 60 -93 3 -3 21 -28 39 -55 50 -74 168 -167 259 -205 106 -44 229 -51
357 -21 80 19 192 70 227 104 26 25 87 67 96 67 5 0 12 -13 14 -30 3 -17 0
-30 -6 -30 -6 0 -12 -11 -12 -24 -1 -17 2 -23 12 -19 8 3 14 -1 14 -11 0 -9
-7 -16 -16 -16 -8 0 -12 -4 -9 -10 3 -5 -1 -10 -10 -10 -14 0 -16 -6 -10 -27
3 -15 11 -31 17 -34 6 -4 7 -9 0 -13 -5 -3 -7 -17 -4 -32 4 -23 2 -25 -15 -20
-14 4 -23 1 -27 -9 -3 -9 0 -15 8 -15 7 0 12 -9 11 -20 -2 -28 -15 -38 -15
-12 0 12 -4 22 -9 22 -13 0 -22 -28 -10 -36 6 -3 8 -11 6 -17 -2 -6 5 -18 15
-27 17 -13 17 -21 8 -69 -5 -29 -10 -61 -10 -70 0 -14 2 -14 11 -1 9 12 9 11
4 -5 -4 -11 -9 -37 -11 -59 -2 -21 -17 -62 -33 -92 -16 -30 -27 -62 -25 -72 3
-9 -4 -35 -15 -56 -11 -21 -18 -43 -15 -47 3 -5 -2 -6 -11 -3 -11 5 -16 2 -14
-7 4 -29 -14 -79 -28 -79 -10 0 -14 -7 -10 -20 3 -11 1 -22 -4 -25 -5 -3 -13
-24 -19 -46 -6 -22 -19 -48 -28 -58 -54 -60 -62 -72 -51 -89 9 -14 6 -26 -10
-52 -11 -19 -21 -30 -21 -23 0 7 -7 10 -15 7 -10 -4 -13 -13 -10 -25 4 -12 1
-21 -9 -25 -9 -3 -12 -12 -9 -22 5 -11 2 -14 -10 -9 -12 4 -19 -3 -29 -29 -7
-19 -23 -41 -35 -50 -13 -8 -21 -19 -18 -24 4 -6 -5 -10 -19 -10 -14 0 -26 -5
-26 -10 0 -6 -10 -24 -21 -40 -12 -16 -19 -35 -16 -43 3 -7 1 -20 -4 -28 -7
-11 -9 -10 -9 6 -1 15 -4 13 -14 -10 -7 -16 -11 -38 -8 -47 2 -10 -1 -18 -7
-18 -6 0 -11 6 -11 13 0 23 -20 -17 -20 -42 0 -16 -4 -21 -15 -17 -9 3 -15 0
-15 -10 0 -8 -7 -17 -15 -20 -8 -4 -15 -13 -15 -20 0 -21 -30 -30 -42 -13 -8
11 -9 10 -4 -4 6 -17 -12 -67 -24 -67 -14 0 -71 -64 -66 -75 2 -7 -1 -12 -7
-12 -33 1 -45 -5 -43 -20 0 -11 -6 -18 -15 -17 -12 1 -15 -4 -11 -18 4 -17 1
-19 -17 -13 -15 4 -21 2 -21 -9 0 -8 -10 -21 -22 -27 -13 -7 -29 -20 -36 -31
-7 -10 -21 -18 -30 -18 -10 0 -23 -9 -30 -20 -7 -12 -17 -18 -22 -15 -6 4 -22
-2 -38 -13 -39 -27 -58 -32 -71 -19 -8 8 -11 8 -11 0 0 -7 -14 -10 -35 -8 -19
2 -37 -1 -41 -6 -3 -5 -9 -7 -14 -4 -5 3 -12 1 -15 -5 -5 -8 -11 -7 -21 1 -8
6 -25 9 -39 7 -14 -3 -25 -2 -25 1 0 4 -9 7 -19 7 -11 0 -17 -4 -15 -8 3 -4 0
-8 -5 -8 -6 0 -11 6 -11 13 0 8 -2 9 -8 1 -4 -6 -20 -9 -37 -7 -16 3 -45 5
-62 5 -18 -1 -33 4 -33 10 0 6 -9 3 -19 -6 -18 -16 -20 -16 -28 -1 -7 12 -17
14 -37 9 -20 -5 -24 -9 -14 -15 8 -6 1 -9 -23 -9 -20 0 -42 6 -48 14 -6 7 -37
16 -68 19 -31 3 -60 12 -64 19 -5 7 -9 9 -9 3 0 -5 -5 -4 -12 3 -7 7 -18 12
-26 12 -7 0 -29 12 -47 26 -19 14 -39 23 -45 19 -5 -3 -10 -1 -10 4 0 6 -7 11
-15 11 -9 0 -18 6 -21 14 -3 8 -15 11 -29 8 -21 -4 -27 2 -41 37 -9 22 -19 40
-22 39 -4 -1 -19 4 -34 12 -22 10 -27 18 -23 39 3 14 2 20 -1 14 -10 -22 -24
-14 -24 12 0 14 -3 25 -7 25 -5 0 -26 25 -48 55 -22 30 -42 55 -46 55 -3 0
-11 11 -17 25 -7 15 -20 25 -34 26 -17 1 -19 2 -5 6 9 2 17 10 17 18 0 8 -7
11 -19 8 -16 -4 -19 0 -18 31 1 20 -5 42 -12 49 -8 6 -11 7 -8 2 3 -6 2 -17
-4 -25 -7 -12 -9 -12 -9 -1 0 7 -6 11 -15 7 -8 -3 -15 -1 -15 3 0 5 6 11 12
13 7 3 13 19 14 36 2 34 -20 49 -56 37 -14 -5 -20 -2 -20 9 0 9 -9 16 -20 16
-11 0 -20 5 -20 10 0 6 5 10 11 10 18 0 4 23 -16 26 -19 3 -35 -11 -35 -31 0
-5 4 -3 10 5 5 8 11 12 14 9 3 -2 1 -11 -3 -18 -14 -22 -33 -1 -29 32 1 21 -2
31 -10 30 -17 -4 -36 39 -88 199 -62 193 -96 333 -129 518 -14 85 -33 184 -41
220 -8 36 -14 80 -14 98 0 18 -4 41 -10 51 -8 17 -20 72 -40 201 -5 30 -15 90
-23 133 -26 131 -24 286 5 475 15 102 27 104 44 7 9 -52 60 -199 87 -250 72
-135 222 -276 349 -326 84 -33 118 -51 113 -59 -3 -4 2 -13 10 -20 13 -11 14
-10 9 4 -3 9 -1 16 5 16 6 0 11 -6 11 -13 0 -15 109 -19 128 -4 7 5 15 7 19 4
3 -4 13 -1 21 6 13 10 15 9 9 -6 -5 -14 -3 -17 11 -13 10 3 37 7 60 8 29 1 42
6 42 16 0 8 -6 12 -15 8 -8 -3 -15 -2 -15 3 0 7 11 13 50 25 3 1 39 24 80 52
90 62 169 143 234 242 26 39 52 72 57 72 5 0 15 -11 21 -25 14 -31 23 -31 43
-2 20 31 55 139 48 149 -2 5 1 15 7 23 10 12 9 16 -5 21 -22 9 -39 54 -25 68
15 15 12 26 -6 26 -12 0 -15 6 -10 23 4 12 9 58 13 103 5 65 2 87 -12 118 -19
41 -189 218 -199 208 -8 -7 -46 33 -46 48 0 7 9 9 23 5 21 -7 21 -6 3 7 -17
14 -17 16 -3 45 9 17 14 33 10 36 -9 10 6 56 26 76 12 12 16 23 10 32 -7 11
-9 10 -9 -5 0 -17 -3 -16 -34 8 -19 14 -43 26 -53 26 -10 1 -29 7 -43 15 -14
8 -39 14 -57 15 -17 0 -35 5 -38 10 -3 6 -21 10 -40 10 -19 0 -36 4 -39 9 -9
13 -69 22 -196 27 -176 7 -197 6 -232 -16 -18 -11 -45 -26 -60 -32 -14 -7 -31
-21 -37 -32 -11 -22 -24 -43 -53 -88 -10 -14 -18 -35 -18 -45 0 -13 -14 -25
-42 -37 -24 -10 -60 -25 -82 -34 -21 -9 -47 -15 -57 -15 -11 1 -19 -2 -19 -7
0 -5 -7 -7 -15 -4 -11 5 -12 11 -5 24 6 10 10 35 10 55 0 20 5 46 11 57 8 15
8 22 -1 28 -16 10 -2 58 19 65 18 5 26 41 10 50 -15 10 -10 25 6 19 12 -5 15
3 15 39 0 25 4 48 9 51 5 3 12 25 15 48 11 76 12 82 25 143 25 113 41 170 51
173 6 2 10 8 10 13 0 17 45 79 58 79 6 0 12 4 12 9 0 5 3 17 7 27 5 13 3 15
-8 9 -11 -6 -12 -5 -1 6 6 7 12 23 12 36 0 13 7 26 15 29 8 4 15 15 15 25 0
10 4 19 9 19 5 0 11 9 14 21 3 12 10 18 17 14 6 -4 15 6 21 23 11 31 39 52 39
29 0 -18 28 39 32 65 2 15 11 24 26 26 12 2 22 10 22 18 0 8 16 30 35 50 19
19 35 39 35 44 0 6 6 10 13 10 8 0 22 9 31 19 10 11 33 27 53 36 19 9 37 23
40 31 3 8 14 14 24 14 10 0 19 4 19 9 0 4 42 22 93 39 50 17 106 36 122 43 17
7 36 11 43 10 6 -1 12 3 12 8 0 6 6 8 14 5 8 -3 17 -1 21 5 3 6 17 8 31 5 18
-5 24 -3 22 7 -2 10 11 15 47 17 37 2 54 9 67 25 10 12 18 16 18 10 0 -15 50
-18 50 -3 0 5 7 7 15 4 9 -4 15 0 15 7 0 11 2 11 10 -1 7 -12 11 -10 19 10
l10 25 8 -25 7 -25 6 30 c4 24 13 33 45 43 22 8 55 11 73 8 25 -4 32 -1 32 12
0 14 2 14 9 3 7 -11 10 -9 16 8 4 13 12 20 18 18 7 -2 20 -1 30 2 33 12 61 10
84 -4z m-1247 -565 c0 -5 -5 -10 -11 -10 -5 0 -7 5 -4 10 3 6 8 10 11 10 2 0
4 -4 4 -10z m123 -933 c27 -12 73 -24 122 -32 41 -7 75 -19 75 -26 0 -5 -6 -9
-12 -9 -9 0 -8 -3 2 -10 9 -6 17 -5 22 3 5 8 8 6 8 -7 0 -12 5 -16 15 -12 9 3
15 0 15 -8 0 -16 -58 -30 -74 -17 -33 27 -233 37 -339 16 -49 -9 -91 -14 -94
-11 -5 5 8 24 47 61 16 16 36 25 57 25 18 0 36 6 40 14 4 8 22 16 38 19 17 2
34 5 38 6 4 0 22 -5 40 -12z m296 -124 c2 -2 -5 -3 -17 -3 -14 0 -22 6 -22 16
0 14 3 15 18 3 9 -7 19 -15 21 -16z m-134 -13 c152 -17 266 -62 370 -147 155
-126 218 -352 154 -551 -81 -249 -203 -391 -405 -468 -57 -22 -88 -27 -179
-30 -79 -2 -114 1 -125 10 -8 8 -33 19 -55 26 -145 45 -285 174 -369 340 -33
64 -82 220 -84 265 -6 145 -3 187 17 250 26 78 91 181 127 197 13 6 24 15 24
20 0 4 5 8 11 8 6 0 17 6 25 14 7 8 46 24 86 36 40 12 84 25 98 30 35 12 198
12 305 0z m1300 -60 c3 -6 -1 -7 -9 -4 -18 7 -21 14 -7 14 6 0 13 -4 16 -10z
m169 -50 c-12 -5 -25 -13 -29 -19 -9 -16 -45 -13 -45 3 0 18 16 24 60 25 30 0
32 -2 14 -9z m146 -20 c0 -3 41 -5 92 -4 54 1 113 -5 143 -13 27 -8 61 -17 75
-20 14 -3 34 -14 45 -23 11 -10 36 -25 56 -33 28 -11 37 -22 41 -44 6 -43 -5
-77 -27 -82 -11 -2 -23 -8 -26 -14 -9 -13 -96 -14 -136 0 -26 9 -33 8 -37 -3
-3 -8 -2 -13 3 -10 5 3 14 0 20 -8 9 -10 8 -16 -4 -26 -8 -7 -15 -21 -15 -31
0 -11 -4 -19 -10 -19 -5 0 -10 5 -10 10 0 6 -12 8 -26 6 -38 -7 -225 20 -234
34 -12 19 -48 12 -112 -21 -10 -5 -26 -9 -37 -9 -33 0 -51 -11 -51 -31 0 -11
-8 -22 -17 -25 -10 -3 -25 -8 -33 -12 -8 -3 -19 -6 -23 -6 -18 -2 -77 -71 -77
-90 0 -19 5 -21 43 -18 23 3 45 10 49 16 5 6 8 2 8 -10 0 -19 9 -23 66 -33 63
-11 104 -7 56 6 -12 3 -22 9 -22 14 0 5 -6 9 -12 9 -26 0 -40 17 -33 39 5 15
14 21 33 20 15 -1 35 2 44 6 13 5 18 0 23 -28 8 -41 38 -77 64 -77 10 0 26 -9
35 -19 16 -18 16 -20 -6 -35 -28 -20 -63 -20 -116 -2 -27 10 -44 11 -48 5 -3
-6 -12 -8 -20 -5 -8 3 -14 0 -14 -7 0 -14 29 -57 30 -44 0 4 21 -7 47 -24 30
-21 48 -28 51 -21 6 18 29 15 36 -4 5 -14 4 -15 -9 -4 -8 7 -15 8 -15 3 0 -5
9 -16 20 -26 11 -9 20 -12 20 -7 0 5 7 6 17 3 12 -5 14 -3 8 7 -5 8 -3 11 6 8
8 -3 15 -11 15 -19 3 -31 6 -33 13 -9 5 16 13 24 24 22 10 -2 25 2 35 7 9 6
11 11 5 11 -7 0 -13 7 -13 15 0 8 -5 15 -12 15 -6 0 -4 7 5 18 18 20 23 52 8
52 -5 0 -12 -11 -15 -25 -9 -37 -23 -30 -28 14 -2 22 -1 38 2 36 3 -2 27 1 53
7 37 8 54 18 80 51 19 23 37 51 41 62 7 18 8 18 17 3 10 -18 2 -48 -12 -48 -5
0 -7 -11 -3 -25 4 -15 2 -25 -5 -25 -12 0 -15 -51 -5 -87 4 -13 11 -23 16 -23
6 0 8 7 4 15 -3 9 0 15 10 15 9 0 14 -3 12 -7 -24 -49 -32 -63 -40 -63 -4 0
-8 -7 -8 -15 0 -22 26 -18 50 7 11 12 20 17 20 10 0 -6 -4 -14 -10 -17 -5 -3
-10 -12 -10 -19 0 -15 61 -9 73 8 6 7 7 6 4 -4 -6 -19 39 -55 48 -39 5 7 15 4
29 -9 38 -35 56 -35 63 -1 4 19 10 28 19 25 10 -4 12 2 7 25 -5 25 -3 28 12
23 14 -6 16 -1 14 22 -4 55 -1 61 31 56 21 -3 32 0 36 12 5 13 9 14 20 5 8 -6
20 -9 28 -6 10 4 13 1 10 -7 -3 -7 2 -19 11 -26 17 -14 20 -40 5 -40 -5 0 -10
-7 -10 -15 0 -8 5 -15 10 -15 6 0 10 -6 10 -14 0 -9 -7 -12 -19 -9 -13 3 -23
-2 -31 -16 -6 -12 -15 -19 -21 -16 -17 11 -9 -11 10 -29 15 -14 17 -24 11 -51
-4 -19 -6 -36 -4 -38 10 -10 -147 -164 -205 -202 -78 -50 -123 -60 -276 -60
-96 1 -120 4 -187 29 -162 60 -301 218 -362 413 -28 89 -31 113 -29 238 1 92
20 158 68 245 26 46 123 139 152 146 13 4 23 10 23 14 0 5 25 14 55 21 30 7
55 16 55 21 0 15 43 27 88 26 23 -1 42 -4 42 -8z m-250 -15 c0 -8 -7 -15 -15
-15 -26 0 -18 20 13 29 1 1 2 -6 2 -14z m1192 -141 c21 -6 30 -29 22 -60 -5
-21 -12 -25 -38 -22 -25 2 -33 9 -41 36 -5 17 -13 32 -17 32 -4 0 -8 4 -8 8 0
10 56 14 82 6z m-1972 -459 c0 -8 -7 -15 -16 -15 -14 0 -14 3 -4 15 7 8 14 15
16 15 2 0 4 -7 4 -15z m1630 -165 c0 -5 -5 -10 -11 -10 -5 0 -7 5 -4 10 3 6 8
10 11 10 2 0 4 -4 4 -10z m-3273 -432 c-3 -8 -6 -5 -6 6 -1 11 2 17 5 13 3 -3
4 -12 1 -19z m330 -165 c-3 -10 -5 -4 -5 12 0 17 2 24 5 18 2 -7 2 -21 0 -30z
m-348 -255 c-1 -50 -3 -57 -9 -33 -11 45 -11 95 0 95 6 0 9 -27 9 -62z m17
-210 c2 -68 7 -154 10 -193 3 -38 6 -79 5 -90 -3 -58 -7 -80 -15 -83 -5 -1
-10 53 -12 120 -3 68 -8 159 -13 203 -10 92 -4 192 12 176 5 -5 11 -65 13
-133z m2971 -320 c-3 -8 -6 -5 -6 6 -1 11 2 17 5 13 3 -3 4 -12 1 -19z m-2960
-100 c-3 -8 -6 -5 -6 6 -1 11 2 17 5 13 3 -3 4 -12 1 -19z m113 -838 c0 -52
-11 -130 -19 -130 -4 0 -7 38 -9 83 -1 68 1 84 13 84 11 0 15 -11 15 -37z
m707 -210 c0 -16 -4 -30 -9 -30 -4 0 -8 14 -8 30 0 17 4 30 8 30 5 0 9 -13 9
-30z m21 -35 c-4 -19 -1 -25 13 -25 29 0 33 -1 46 -12 7 -6 10 -14 7 -19 -3
-5 4 -9 15 -9 12 0 21 -7 21 -16 0 -15 66 -84 80 -84 4 0 13 -14 20 -30 7 -17
23 -39 36 -49 13 -11 24 -28 24 -39 0 -12 9 -23 20 -27 11 -3 20 -10 20 -15 0
-5 29 -39 65 -76 36 -37 65 -71 65 -76 0 -4 7 -8 15 -8 8 0 15 -4 15 -10 0 -5
7 -10 15 -10 9 0 18 -7 21 -15 3 -8 14 -17 24 -20 11 -3 22 -15 25 -26 4 -12
15 -19 31 -19 13 0 32 -4 42 -9 33 -18 57 -24 90 -23 19 1 32 -3 32 -11 0 -6
5 -4 11 6 5 9 14 17 19 17 6 0 10 -8 10 -17 0 -14 2 -15 9 -5 6 11 10 10 15
-3 4 -12 10 -14 19 -7 6 5 21 6 32 2 11 -4 39 -5 62 -2 27 3 49 0 58 -8 9 -7
18 -10 22 -7 3 4 12 2 20 -4 9 -8 13 -8 13 -1 0 6 7 9 15 6 9 -4 15 0 15 10 0
13 3 13 20 -4 11 -11 34 -20 53 -21 55 -2 102 2 105 9 9 23 24 36 28 25 7 -15
74 12 92 38 7 10 22 19 33 19 10 0 19 6 19 13 0 6 14 23 30 37 17 14 40 35 52
48 12 12 26 22 31 22 5 0 30 21 56 48 109 109 172 162 196 162 13 0 26 6 29
13 3 6 3 1 0 -13 l-7 -25 21 25 c17 20 21 22 22 8 0 -9 -5 -20 -10 -23 -6 -4
-8 -10 -5 -15 3 -4 -2 -13 -10 -20 -8 -7 -12 -17 -9 -22 4 -6 10 -5 15 3 5 8
9 9 9 3 0 -6 -7 -17 -15 -24 -22 -18 -18 -36 11 -59 15 -12 22 -21 16 -21 -7
0 -7 -13 0 -40 11 -41 5 -75 -11 -66 -5 3 -7 -4 -3 -16 l5 -21 19 22 c12 16
18 18 18 9 0 -8 -3 -18 -7 -22 -16 -15 -13 -116 3 -142 27 -41 25 -109 -6
-204 -16 -47 -32 -103 -36 -124 -4 -22 -21 -71 -39 -110 -18 -39 -36 -87 -40
-106 -4 -19 -13 -48 -19 -65 -7 -16 -23 -64 -36 -105 -13 -41 -29 -86 -36
-100 -65 -130 -92 -191 -98 -221 -4 -21 -13 -42 -20 -48 -8 -7 -17 -28 -21
-49 -3 -20 -12 -46 -19 -57 -16 -24 -19 -82 -4 -67 6 6 16 8 23 5 8 -2 21 7
30 21 20 30 35 26 35 -9 0 -12 7 -26 16 -29 8 -3 13 -10 10 -15 -9 -14 4 -41
20 -41 8 0 14 7 14 15 0 8 5 15 10 15 6 0 10 -4 10 -8 0 -4 18 -13 39 -18 32
-9 43 -8 54 4 13 12 17 10 28 -22 12 -33 29 -49 29 -26 0 5 7 7 16 3 13 -5 15
2 11 41 -3 34 0 46 10 46 7 0 13 4 13 9 0 5 17 28 38 50 29 31 41 38 50 29 9
-9 13 -7 18 5 10 26 24 9 24 -29 0 -30 3 -34 25 -34 16 0 25 -6 25 -16 0 -10
6 -14 14 -11 8 3 18 -5 25 -19 6 -13 15 -24 20 -24 5 0 12 -11 15 -24 4 -17
13 -23 32 -23 14 0 30 -5 35 -10 6 -6 -10 -56 -42 -134 -28 -68 -66 -162 -85
-209 -19 -47 -41 -98 -49 -115 -7 -16 -25 -60 -40 -96 -32 -82 -76 -131 -417
-472 -145 -144 -267 -258 -280 -261 -13 -3 -63 -12 -113 -20 -49 -8 -124 -22
-165 -31 -85 -19 -317 -18 -341 1 -8 6 -30 17 -49 24 -79 29 -168 76 -220 113
-284 207 -332 247 -521 442 -158 162 -359 403 -359 429 0 3 -22 41 -50 85 -27
44 -50 87 -50 94 0 8 -9 26 -20 40 -30 37 -52 95 -40 102 6 3 10 2 10 -4 0 -6
7 -8 15 -5 10 4 15 0 16 -12 0 -11 3 -14 6 -6 7 18 33 15 33 -5 0 -13 3 -14
12 -5 15 15 38 16 38 1 0 -6 9 -23 19 -38 15 -21 27 -26 55 -26 19 1 39 4 42
8 4 4 14 7 22 7 15 0 117 64 127 79 3 5 6 21 7 34 1 14 5 24 8 22 4 -2 24 1
45 7 28 9 40 20 48 42 10 28 11 28 18 8 8 -20 10 -20 36 -7 15 8 28 20 28 27
1 7 6 12 12 11 6 -1 16 17 22 40 14 54 20 63 53 71 19 4 30 1 40 -11 17 -23
46 -39 86 -48 31 -6 32 -6 32 28 0 20 6 37 13 40 10 4 10 7 0 18 -18 19 -16
42 2 35 18 -7 17 -3 -40 74 -22 30 -40 57 -40 61 0 3 -15 21 -32 40 -18 18
-33 42 -33 54 0 12 -10 30 -21 41 -31 28 -39 55 -23 85 12 24 11 30 -11 59
-26 36 -25 57 1 24 12 -15 14 -15 11 -3 -4 12 -1 15 13 12 28 -8 31 10 10 70
-11 31 -20 64 -20 72 0 9 -3 14 -7 12 -5 -3 -9 9 -10 26 -1 17 -7 35 -13 41
-5 5 -10 21 -10 34 0 13 -5 32 -11 43 -8 15 -7 24 3 36 10 12 10 17 1 20 -8 3
-9 12 -3 27 5 13 5 27 1 32 -5 5 -11 24 -14 42 -5 24 -3 32 8 32 17 0 19 14 5
39 -7 14 -5 24 9 40 11 12 22 18 25 12 3 -5 2 -11 -3 -13 -12 -4 -24 -48 -13
-48 5 0 12 10 15 22 6 20 7 20 31 5 15 -10 27 -13 31 -7 8 13 -4 32 -16 25 -5
-4 -9 3 -9 14 0 12 4 21 9 21 5 0 11 19 15 41 6 39 8 41 21 23 13 -18 14 -18
8 4 -3 12 -13 22 -23 22 -17 0 -30 36 -30 79 0 14 2 14 10 1 8 -13 10 -13 10
2 0 9 -5 20 -11 24 -7 4 -1 16 16 34 23 24 24 28 10 34 -23 8 -27 8 -20 -4 8
-12 -15 -13 -34 -1 -9 6 -10 11 -2 15 14 9 14 43 0 48 -7 2 -7 12 1 32 13 36
6 58 -16 49 -14 -5 -14 -3 -2 18 7 13 18 27 23 32 6 4 3 11 -7 18 -15 8 -18
23 -17 77 0 47 3 61 9 47 6 -14 9 -15 9 -5 1 9 -6 26 -15 38 -8 12 -10 22 -5
22 6 0 11 7 11 15 0 8 -5 15 -12 15 -9 0 -9 3 0 12 7 7 12 20 12 30 0 10 3 18
6 18 4 0 4 -11 2 -25z m2 -485 c0 -5 -4 -10 -10 -10 -5 0 -10 5 -10 10 0 6 5
10 10 10 6 0 10 -4 10 -10z m1930 -224 c0 -5 -7 -3 -15 4 -8 7 -12 17 -9 22 7
10 24 -9 24 -26z m-2040 -528 c0 -5 -4 -8 -10 -8 -5 0 -10 10 -10 23 0 18 2
19 10 7 5 -8 10 -18 10 -22z"/>
<path d="M4055 6400 c3 -5 8 -10 11 -10 2 0 4 5 4 10 0 6 -5 10 -11 10 -5 0
-7 -4 -4 -10z"/>
<path d="M3340 6267 c0 -8 -16 -28 -35 -46 -19 -17 -35 -37 -35 -44 0 -7 -16
-19 -35 -27 -32 -13 -52 -36 -40 -48 3 -3 5 0 5 6 0 7 5 12 10 12 6 0 10 -7
10 -15 0 -23 36 -18 53 8 8 12 31 40 51 62 20 22 34 45 32 51 -2 6 2 21 10 33
14 19 14 21 -5 21 -12 0 -21 -6 -21 -13z"/>
<path d="M4162 6174 c10 -10 20 -16 22 -13 3 3 -5 11 -17 18 -21 13 -21 12 -5
-5z"/>
<path d="M4320 6050 c0 -6 7 -10 15 -10 8 0 15 2 15 4 0 2 -7 6 -15 10 -8 3
-15 1 -15 -4z"/>
<path d="M4505 6010 c-8 -13 -1 -24 14 -19 6 3 7 10 2 18 -6 10 -10 10 -16 1z"/>
<path d="M3349 5958 c-14 -6 -34 -23 -43 -37 -12 -18 -16 -20 -11 -6 6 19 5
19 -11 4 -12 -13 -15 -26 -9 -57 9 -55 42 -84 91 -80 36 3 39 5 37 31 -2 25 1
27 25 21 15 -4 40 -13 55 -21 15 -8 32 -11 37 -8 9 6 36 -18 70 -61 8 -11 32
-32 53 -48 34 -25 40 -26 55 -13 27 23 62 28 63 9 0 -13 2 -13 9 3 8 19 8 19
16 1 7 -18 8 -18 17 5 l10 24 7 -25 6 -25 8 23 c4 12 16 22 27 22 10 0 24 9
31 20 7 11 18 20 25 20 6 0 15 5 19 12 5 7 2 8 -7 3 -10 -6 -11 -5 -4 3 6 7
24 13 40 15 50 6 120 30 128 44 5 7 13 11 18 8 5 -4 7 -11 4 -16 -4 -5 0 -9 8
-9 17 0 37 42 37 79 0 41 -27 44 -123 16 -56 -16 -88 -31 -102 -48 -11 -14
-31 -27 -45 -29 -14 -2 -24 -9 -22 -16 3 -16 -8 -15 -32 3 -30 23 -38 18 -36
-22 1 -21 1 -47 0 -58 -1 -19 -2 -19 -10 2 -5 12 -7 44 -5 72 4 54 1 56 -39
22 -11 -9 -16 -10 -12 -3 10 17 -4 38 -14 21 -7 -10 -12 -10 -26 2 -16 12 -17
12 -11 -3 3 -9 1 -19 -6 -22 -7 -3 -2 -3 9 -1 18 5 21 2 16 -20 -3 -16 -11
-25 -24 -25 -10 0 -16 4 -13 10 11 17 -24 69 -68 99 -50 34 -153 71 -194 70
-15 -1 -40 -6 -54 -11z"/>
<path d="M4206 5854 c-4 -9 -4 -19 -2 -21 8 -8 26 8 26 23 0 19 -16 18 -24 -2z"/>
<path d="M4173 5826 c-5 -10 -27 -23 -49 -31 -26 -9 -38 -19 -36 -29 2 -9 -1
-16 -5 -15 -12 3 -43 -12 -43 -21 0 -18 80 -8 107 13 56 43 63 56 44 86 -7 11
-10 10 -18 -3z"/>
<path d="M3447 5350 c-6 -23 -37 -28 -37 -5 0 17 -53 13 -76 -6 -8 -6 -17 -9
-20 -6 -5 4 -104 -25 -164 -49 -28 -11 -90 -13 -123 -3 -29 9 -34 7 -59 -23
-16 -18 -28 -36 -28 -40 0 -5 12 -13 28 -19 46 -19 86 -42 111 -66 18 -15 29
-19 37 -12 7 6 24 7 41 2 15 -4 34 -6 41 -5 6 2 12 -2 12 -9 0 -8 4 -8 15 1 8
7 15 9 15 4 0 -5 12 -9 28 -10 82 -3 142 -16 142 -31 0 -13 3 -13 15 -3 13 10
15 9 15 -9 0 -12 6 -21 15 -21 8 0 15 4 15 8 0 14 91 3 130 -15 41 -19 212
-22 273 -5 30 8 43 7 69 -5 29 -15 32 -15 43 1 10 13 31 18 90 20 65 2 80 0
95 -16 16 -17 18 -18 24 -2 5 13 9 14 21 4 8 -7 12 -16 9 -21 -3 -5 1 -16 9
-24 13 -13 16 -11 21 11 4 16 20 31 44 42 20 9 39 20 40 25 2 4 17 7 34 7 31
0 67 32 68 60 1 39 -85 78 -185 85 -11 1 -33 7 -48 13 -16 7 -35 12 -43 12 -8
0 -22 8 -32 18 -24 24 -68 42 -102 42 -24 0 -30 5 -31 23 -1 12 -5 4 -9 -18
-7 -38 -7 -38 -9 -8 0 17 -6 35 -11 38 -10 6 -40 -17 -41 -32 -1 -16 -9 -15
-15 1 -4 10 -18 16 -36 16 -17 0 -27 4 -23 10 11 18 -17 11 -31 -7 -12 -16
-13 -16 -14 -2 0 18 -38 20 -74 4 -11 -5 -38 -2 -67 8 -30 9 -51 11 -55 6 -3
-6 -12 -5 -20 2 -11 9 -18 9 -26 1 -14 -14 -68 -16 -68 -3 0 5 6 12 13 15 6 4
1 4 -12 2 -14 -3 -30 -1 -37 5 -8 6 -13 3 -17 -11z m82 -190 c6 16 28 19 48 7
6 -4 18 -4 26 -1 19 7 34 -33 18 -49 -6 -6 -11 -20 -11 -30 0 -13 -5 -17 -16
-13 -9 3 -20 6 -26 6 -6 0 -8 7 -5 15 4 8 2 17 -3 20 -6 4 -10 0 -10 -7 0 -8
-5 -19 -12 -26 -9 -9 -15 -5 -25 19 -7 17 -13 45 -12 63 0 31 0 31 11 6 8 -19
12 -22 17 -10z m326 -13 c9 -33 -11 -76 -39 -87 -25 -9 -97 -11 -127 -3 -9 2
-19 13 -22 24 -4 16 -2 19 10 15 13 -5 13 -4 4 7 -8 11 -8 17 1 25 27 21 84
40 125 41 36 1 43 -2 48 -22z m105 -40 c0 -4 -4 -6 -9 -3 -5 3 -14 -1 -21 -9
-15 -18 -54 -20 -47 -2 2 6 11 11 20 11 9 -1 16 1 15 5 -3 26 3 31 22 19 11
-7 20 -16 20 -21z m34 8 c-7 -16 -24 -21 -24 -6 0 8 7 13 27 20 1 1 0 -6 -3
-14z"/>
<path d="M4930 5320 c0 -5 5 -10 10 -10 6 0 10 5 10 10 0 6 -4 10 -10 10 -5 0
-10 -4 -10 -10z"/>
<path d="M3130 5080 c0 -5 7 -10 15 -10 8 0 15 5 15 10 0 6 -7 10 -15 10 -8 0
-15 -4 -15 -10z"/>
<path d="M3195 5071 c-3 -5 -1 -12 5 -16 5 -3 10 1 10 9 0 18 -6 21 -15 7z"/>
<path d="M3182 5035 c0 -5 6 -26 13 -45 l13 -35 1 38 c1 21 -3 36 -8 33 -5 -4
-12 0 -14 6 -3 7 -5 9 -5 3z"/>
<path d="M3220 5010 c0 -5 5 -10 10 -10 6 0 10 5 10 10 0 6 -4 10 -10 10 -5 0
-10 -4 -10 -10z"/>
<path d="M3220 4978 c0 -7 3 -24 7 -36 5 -19 11 -23 34 -20 25 4 28 2 23 -17
-4 -17 0 -24 15 -28 14 -3 19 -10 15 -21 -5 -12 0 -16 20 -16 14 0 26 -4 26
-10 0 -5 -6 -10 -12 -10 -10 0 -10 -2 0 -8 9 -7 8 -14 -8 -32 -25 -29 -27 -62
-2 -58 9 2 20 8 24 13 5 6 8 3 8 -6 0 -9 6 -19 14 -22 9 -4 12 -14 9 -26 -5
-19 -2 -20 27 -15 30 7 32 5 25 -16 -5 -15 -4 -20 3 -16 6 4 15 -2 21 -11 6
-10 11 -15 11 -10 0 4 18 -2 41 -13 22 -12 55 -23 72 -24 18 -2 39 -6 47 -9
24 -10 180 -14 180 -4 0 4 8 7 18 6 57 -5 94 2 99 20 3 13 11 17 24 14 11 -3
19 0 19 7 0 7 8 9 19 5 14 -4 23 0 31 15 6 11 15 20 20 20 13 0 70 51 70 62 0
4 -7 8 -15 8 -8 0 -15 4 -15 9 0 5 7 14 15 21 8 7 15 21 15 31 0 11 7 19 15
19 8 0 15 9 15 21 0 11 4 18 9 15 15 -10 59 12 64 31 15 51 18 85 9 79 -6 -3
-13 0 -15 6 -4 10 -8 9 -16 -2 -9 -12 -11 -11 -11 8 0 25 -24 26 -26 1 -2 -33
-5 -37 -29 -43 -14 -4 -25 -10 -25 -15 0 -14 -60 -71 -75 -71 -25 0 -78 -27
-64 -32 8 -3 2 -9 -16 -13 -16 -4 -39 -13 -50 -19 -11 -6 -27 -11 -36 -12 -9
-1 -28 -4 -43 -8 -19 -5 -27 -3 -25 6 3 26 -1 48 -10 48 -5 0 -7 -9 -4 -20 3
-11 0 -20 -6 -20 -6 0 -11 5 -11 11 0 5 -4 8 -9 5 -5 -4 -12 0 -14 6 -3 8 -6
6 -6 -5 -1 -10 -6 -15 -11 -12 -6 4 -17 1 -25 -5 -12 -10 -15 -9 -15 4 0 15
-6 17 -52 20 -9 1 -20 4 -24 9 -12 11 -24 8 -21 -5 3 -18 -46 -10 -56 8 -5 8
-12 12 -18 9 -5 -4 -9 -3 -9 2 0 4 -15 14 -32 22 -18 8 -40 19 -48 26 -8 7
-32 18 -52 26 -21 7 -38 19 -38 27 0 7 -4 11 -9 8 -10 -6 -34 20 -46 49 -7 18
-9 18 -12 3 -6 -24 -24 -23 -30 2 -6 22 -23 28 -23 8z m170 -168 c0 -5 -4 -10
-10 -10 -5 0 -10 5 -10 10 0 6 5 10 10 10 6 0 10 -4 10 -10z m690 -96 c0 -2
-7 -4 -15 -4 -8 0 -15 4 -15 10 0 5 7 7 15 4 8 -4 15 -8 15 -10z"/>
<path d="M2507 4891 c-4 -17 -3 -21 5 -13 5 5 8 16 6 23 -3 8 -7 3 -11 -10z"/>
<path d="M3262 4875 c0 -16 2 -22 5 -12 2 9 2 23 0 30 -3 6 -5 -1 -5 -18z"/>
<path d="M2525 4860 c-3 -5 -1 -10 4 -10 6 0 11 5 11 10 0 6 -2 10 -4 10 -3 0
-8 -4 -11 -10z"/>
<path d="M3280 4810 c0 -5 7 -7 15 -4 8 4 15 8 15 10 0 2 -7 4 -15 4 -8 0 -15
-4 -15 -10z"/>
<path d="M3000 4269 c0 -5 5 -7 10 -4 6 3 10 8 10 11 0 2 -4 4 -10 4 -5 0 -10
-5 -10 -11z"/>
<path d="M3185 7120 c-3 -6 1 -13 9 -16 9 -3 16 -12 16 -20 0 -8 6 -14 14 -14
8 0 16 -8 18 -17 3 -16 4 -16 10 -2 12 30 -52 94 -67 69z"/>
<path d="M2697 7073 c-39 -20 -117 -98 -117 -117 0 -8 5 -18 10 -21 6 -3 10 1
10 9 0 20 81 103 113 115 15 6 27 15 27 21 0 13 -8 11 -43 -7z"/>
<path d="M3269 7065 c-1 -11 -1 -24 0 -29 1 -5 -3 -12 -10 -16 -6 -4 -8 -13
-5 -19 4 -6 12 -9 17 -6 5 4 9 0 9 -7 0 -22 -38 -19 -45 3 -5 13 -12 18 -24
14 -10 -3 -35 2 -55 10 -26 11 -42 13 -50 6 -10 -9 -53 -8 -136 3 -14 1 -35 4
-47 4 -16 2 -21 7 -17 20 3 10 -3 6 -15 -9 -19 -24 -27 -27 -76 -24 -50 2 -55
0 -55 -18 0 -16 -3 -18 -11 -10 -6 6 -19 9 -28 6 -28 -10 -101 -74 -101 -89 0
-14 -12 -18 -39 -15 -7 2 -10 -2 -7 -8 4 -5 2 -12 -4 -16 -5 -3 -10 0 -10 7 0
7 -7 0 -15 -16 -8 -15 -12 -32 -9 -37 3 -5 -3 -9 -13 -9 -16 -1 -15 -3 5 -19
12 -11 22 -24 22 -30 0 -6 16 -2 35 9 29 17 39 18 55 8 12 -8 18 -19 14 -30
-3 -10 3 -21 16 -28 11 -6 20 -7 20 -3 0 4 5 2 12 -5 22 -22 58 -14 71 16 6
15 16 31 22 35 7 6 6 10 -2 14 -7 2 -13 14 -14 26 -1 16 -4 12 -12 -13 l-11
-35 -4 33 c-2 20 -9 32 -18 32 -9 0 -14 7 -12 18 2 9 10 17 18 17 8 0 24 10
35 23 11 12 28 22 37 22 15 0 31 -26 27 -46 -6 -33 6 -62 40 -96 l40 -39 77 3
c71 3 81 6 110 33 21 20 35 44 39 70 11 66 15 74 35 72 11 -1 20 -5 20 -9 0
-4 14 -21 30 -38 32 -33 40 -56 15 -46 -8 3 -15 1 -15 -4 0 -6 5 -10 10 -10
18 0 11 -18 -9 -25 -11 -3 -22 -13 -25 -21 -3 -8 -1 -12 4 -9 16 10 50 -14 44
-30 -4 -8 -1 -15 5 -15 6 0 11 5 11 11 0 27 34 43 93 44 41 1 62 5 65 14 2 7
0 16 -6 20 -16 10 -42 80 -31 86 5 4 9 0 10 -7 0 -7 4 -4 8 7 5 11 5 25 1 30
-4 6 -11 24 -14 40 -7 34 -55 90 -84 99 -11 4 -24 16 -30 29 -10 21 -11 21
-13 2z m-261 -116 c-2 -6 -8 -10 -13 -10 -5 0 -11 4 -13 10 -2 6 4 11 13 11 9
0 15 -5 13 -11z"/>
<path d="M2511 6974 c0 -11 3 -14 6 -6 3 7 2 16 -1 19 -3 4 -6 -2 -5 -13z"/>
<path d="M2550 6916 c0 -2 7 -6 15 -10 8 -3 15 -1 15 4 0 6 -7 10 -15 10 -8 0
-15 -2 -15 -4z"/>
<path d="M2807 6695 c22 -30 29 -31 36 -5 3 11 1 18 -3 15 -5 -3 -11 -1 -15 5
-3 5 -13 10 -21 10 -12 0 -12 -4 3 -25z"/>
<path d="M3193 6693 c-27 -21 -36 -23 -48 -13 -8 6 -19 8 -26 4 -19 -12 -83
-14 -89 -3 -10 15 -41 -1 -39 -20 3 -31 -1 -41 -17 -41 -12 0 -14 7 -9 30 4
19 3 30 -4 30 -6 0 -11 -13 -11 -30 0 -32 -9 -37 -28 -18 -17 17 -25 3 -12
-21 9 -17 8 -21 -5 -21 -8 0 -15 6 -15 13 -1 7 -6 5 -14 -6 -8 -10 -19 -16
-26 -15 -7 2 -14 -2 -16 -8 -5 -12 74 -13 94 -1 15 10 32 0 32 -19 0 -8 -10
-14 -25 -14 -14 0 -25 -4 -25 -10 0 -5 9 -10 21 -10 11 0 18 -4 15 -9 -3 -5 6
-11 19 -14 14 -2 28 0 31 4 3 5 16 6 29 3 43 -11 149 40 207 98 10 10 22 18
28 18 17 0 33 41 21 53 -8 8 -11 8 -11 -1 0 -7 -4 -12 -10 -12 -5 0 -10 6 -10
13 0 7 -6 20 -12 29 -12 15 -16 14 -45 -9z"/>
<path d="M2876 6701 c-9 -14 2 -51 15 -51 5 0 12 7 16 16 7 19 -21 51 -31 35z"/>
<path d="M2690 6679 c0 -5 5 -7 10 -4 6 3 10 8 10 11 0 2 -4 4 -10 4 -5 0 -10
-5 -10 -11z"/>
<path d="M2760 6625 c0 -8 2 -15 4 -15 2 0 6 7 10 15 3 8 1 15 -4 15 -6 0 -10
-7 -10 -15z"/>
<path d="M2740 6580 c0 -5 5 -10 10 -10 6 0 10 5 10 10 0 6 -4 10 -10 10 -5 0
-10 -4 -10 -10z"/>
<path d="M2805 6500 c3 -5 8 -10 11 -10 2 0 4 5 4 10 0 6 -5 10 -11 10 -5 0
-7 -4 -4 -10z"/>
<path d="M4543 7034 c10 -10 67 -15 67 -6 0 5 -16 9 -36 10 -20 1 -34 -1 -31
-4z"/>
<path d="M4410 7020 c-8 -5 -36 -17 -61 -29 -26 -11 -49 -27 -52 -35 -4 -9
-14 -16 -24 -16 -24 0 -73 -43 -73 -63 0 -14 5 -13 35 4 20 12 35 16 35 10 0
-24 19 -9 25 19 4 17 11 30 16 30 6 0 22 11 37 25 15 14 35 25 44 25 10 0 18
5 18 10 0 6 6 10 14 10 8 0 18 5 21 10 7 12 -14 12 -35 0z"/>
<path d="M4408 6673 c7 -3 16 -2 19 1 4 3 -2 6 -13 5 -11 0 -14 -3 -6 -6z"/>
<path d="M4149 6649 c18 -15 27 -16 43 -8 26 14 17 21 -28 24 l-38 2 23 -18z"/>
<path d="M4665 6639 c-4 -6 -5 -12 -2 -15 2 -3 7 2 10 11 7 17 1 20 -8 4z"/>
<path d="M4500 3560 c-9 -6 -10 -10 -3 -10 6 0 15 5 18 10 8 12 4 12 -15 0z"/>
<path d="M2751 3504 c0 -11 3 -14 6 -6 3 7 2 16 -1 19 -3 4 -6 -2 -5 -13z"/>
<path d="M4503 3443 c-7 -3 -13 -9 -13 -14 0 -6 5 -7 10 -4 6 3 10 -3 10 -14
0 -12 5 -21 10 -21 12 0 14 47 3 53 -5 2 -14 2 -20 0z"/>
<path d="M2807 3153 c-3 -15 -1 -36 3 -47 10 -25 11 -24 16 32 4 46 -11 58
-19 15z"/>
<path d="M2780 3150 c0 -5 5 -10 10 -10 6 0 10 5 10 10 0 6 -4 10 -10 10 -5 0
-10 -4 -10 -10z"/>
<path d="M2840 3036 c0 -9 5 -16 10 -16 6 0 10 4 10 9 0 6 -4 13 -10 16 -5 3
-10 -1 -10 -9z"/>
<path d="M2761 3024 c0 -11 3 -14 6 -6 3 7 2 16 -1 19 -3 4 -6 -2 -5 -13z"/>
<path d="M2791 3033 c0 -6 -4 -20 -7 -30 -5 -14 -4 -15 5 -7 7 7 11 20 8 30
-3 11 -5 14 -6 7z"/>
<path d="M2862 2860 c0 -14 2 -19 5 -12 2 6 2 18 0 25 -3 6 -5 1 -5 -13z"/>
<path d="M2768 2532 c7 -5 10 -16 7 -24 -4 -9 0 -18 9 -21 9 -4 16 -13 16 -22
0 -8 4 -15 9 -15 6 0 18 -13 28 -30 9 -16 23 -30 29 -30 7 0 16 -9 19 -20 3
-11 11 -20 16 -20 17 0 9 15 -31 59 -22 25 -40 49 -40 55 0 7 -9 18 -19 26
-11 7 -17 18 -14 23 6 10 -15 27 -32 27 -5 0 -4 -4 3 -8z"/>
<path d="M4270 9377 c14 -7 47 -26 73 -41 26 -16 50 -26 53 -23 7 7 -118 77
-137 77 -8 0 -3 -6 11 -13z"/>
<path d="M2690 9280 c0 -5 5 -10 10 -10 6 0 10 5 10 10 0 6 -4 10 -10 10 -5 0
-10 -4 -10 -10z"/>
<path d="M5080 8625 c0 -23 16 -52 25 -44 3 3 -1 19 -10 35 -12 23 -15 25 -15
9z"/>
<path d="M1951 4964 c0 -11 3 -14 6 -6 3 7 2 16 -1 19 -3 4 -6 -2 -5 -13z"/>
<path d="M1830 3491 c0 -6 5 -13 10 -16 6 -3 10 1 10 9 0 9 -4 16 -10 16 -5 0
-10 -4 -10 -9z"/>
</g>
</svg>
